<svg xmlns="http://www.w3.org/2000/svg" viewBox="0 0 24 24" width="24" height="24">
  <defs>
    <linearGradient id="gradient" x1="0%" y1="0%" x2="100%" y2="100%">
      <stop offset="0%" stop-color="#6366F1" />
      <stop offset="100%" stop-color="#8B5CF6" />
    </linearGradient>
  </defs>
  <g fill="none" stroke="url(#gradient)" stroke-width="1.5" stroke-linecap="round" stroke-linejoin="round">
    <circle cx="12" cy="12" r="3.5" fill="currentColor" fill-opacity="0.1"/>
    <path d="M19.4 15a1.65 1.65 0 0 0 .33 1.82l.06.06a1.998 1.998 0 0 1 0 2.83 1.998 1.998 0 0 1-2.83 0l-.06-.06a1.65 1.65 0 0 0-1.82-.33 1.65 1.65 0 0 0-1 1.51V21a2 2 0 0 1-2 2 2 2 0 0 1-2-2v-.09A1.65 1.65 0 0 0 9 19.4a1.65 1.65 0 0 0-1.82.33l-.06.06a1.998 1.998 0 0 1-2.83 0 2 2 0 0 1 0-2.83l.06-.06a1.65 1.65 0 0 0 .33-1.82 1.65 1.65 0 0 0-1.51-1H3a2 2 0 0 1-2-2 2 2 0 0 1 2-2h.09A1.65 1.65 0 0 0 4.6 9a1.65 1.65 0 0 0-.33-1.82l-.06-.06a2 2 0 0 1 0-2.83 2 2 0 0 1 2.83 0l.06.06a1.65 1.65 0 0 0 1.82.33H9a1.65 1.65 0 0 0 1-1.51V3a2 2 0 0 1 2-2 2 2 0 0 1 2 2v.09a1.65 1.65 0 0 0 1 1.51 1.65 1.65 0 0 0 1.82-.33l.06-.06a2 2 0 0 1 2.83 0 2 2 0 0 1 0 2.83l-.06.06a1.65 1.65 0 0 0-.33 1.82V9a1.65 1.65 0 0 0 1.51 1H21a2 2 0 0 1 2 2 2 2 0 0 1-2 2h-.09a1.65 1.65 0 0 0-1.51 1z"/>
  </g>
  <circle cx="12" cy="12" r="1.5" fill="currentColor"/>
</svg>
